<?xml version="1.0" encoding="UTF-8"?>
<svg width="992.13" height="496.06" fill-rule="evenodd" image-rendering="optimizeQuality" shape-rendering="geometricPrecision" text-rendering="geometricPrecision" viewBox="0 0 280 140" xmlns="http://www.w3.org/2000/svg">
 <path d="m0-5.7635e-5h70v140h-70z" fill="#da2724"/>
 <path d="m70-5.7635e-5h140v140h-140z" fill="#fff"/>
 <path d="m210-5.7635e-5h70v140h-70z" fill="#da2724"/>
 <path d="m140 13.128-9.1696 17.151c-1.0405 1.8646-2.9047 1.6911-4.7689 0.65038l-6.6386-3.4473 4.9478 26.344c1.0405 4.8134-2.2978 4.8134-3.9454 2.732l-11.586-13.007-1.8809 6.6054c-0.21689 0.86727-1.1706 1.7779-2.6013 1.561l-14.65-3.0887 3.848 14.029c0.82367 3.1223 1.4662 4.4142-0.83167 5.2383l-5.2217 2.4611 25.219 20.543c0.99817 0.77657 1.5026 2.1745 1.1472 3.4399l-2.2072 7.2642 25.152-2.9044c0.77147-0.0097 1.2763 0.41899 1.271 1.3102l-1.5496 26.842 3.4681 0.0211-0.0021-113.74zm0.0042 0 9.1696 17.151c1.0405 1.8646 2.9047 1.6911 4.7689 0.65038l6.6386-3.4473-4.9478 26.344c-1.0405 4.8134 2.2978 4.8134 3.9454 2.732l11.586-13.007 1.8809 6.6054c0.21689 0.86727 1.1706 1.7779 2.6013 1.561l14.65-3.0887-3.848 14.029c-0.82367 3.1223-1.4662 4.4142 0.83167 5.2383l5.2217 2.4611-25.219 20.543c-0.99817 0.77657-1.5026 2.1745-1.1472 3.4399l2.2072 7.2642-25.152-2.9044c-0.77147-0.0097-1.2763 0.41899-1.271 1.3102l1.5496 26.842-3.4681 0.0211 0.0021-113.74z" fill="#da2724"/>
</svg>
