<?xml version="1.0" encoding="UTF-8"?>
<!DOCTYPE svg PUBLIC "-//W3C//DTD SVG 1.1//EN" "http://www.w3.org/Graphics/SVG/1.1/DTD/svg11.dtd">
<!-- Creator: CorelDRAW 2017 -->
<svg xmlns="http://www.w3.org/2000/svg" xml:space="preserve" width="8.26772in" height="11.6929in" version="1.1" style="shape-rendering:geometricPrecision; text-rendering:geometricPrecision; image-rendering:optimizeQuality; fill-rule:evenodd; clip-rule:evenodd"
viewBox="0 0 8267.72 11692.91"
 xmlns:xlink="http://www.w3.org/1999/xlink"
 xmlns:rdf="http://www.w3.org/1999/02/22-rdf-syntax-ns#"
 xmlns:cc="http://creativecommons.org/ns#"
 xmlns:dc="http://purl.org/dc/elements/1.1/">
 <defs>
  <style type="text/css">
   <![CDATA[
    .fil0 {fill:black;fill-rule:nonzero}
    .fil1 {fill:#395BA8;fill-rule:nonzero}
   ]]>
  </style>
 </defs>
 <g id="Layer_x0020_1">
  <metadata id="CorelCorpID_0Corel-Layer"/>
  <g id="_1886942900400">
   <path class="fil0" d="M554.5 9895.21c5.96,7.33 8.17,14.76 8.17,20.98 0,7.77 -3.33,13.99 -9.99,18.65 -6.66,4.66 -15.44,6.99 -26.35,6.99 -7.27,0 -13.34,-1.31 -18.17,-3.89 -4.83,-2.57 -8.75,-6.74 -12.72,-11.65l-163.54 -202.14 -15.44 0 -134.47 0 0 187.38c0,8.78 -3.35,16.07 -10,21.75 -6.65,5.69 -15.14,8.55 -25.44,8.55 -10.3,0 -18.78,-2.85 -25.44,-8.55 -6.66,-5.69 -10,-12.95 -10,-21.75l0 -546.17c0,-8.8 3.33,-16.05 10,-21.75 6.66,-5.69 15.14,-8.55 25.44,-8.55l169.91 0c44.22,0 83.59,7.9 118.12,23.7 34.52,15.79 61.63,41.95 81.31,70.44 19.69,28.48 29.53,64.87 29.53,101.12 0,39.88 -12.58,78.86 -37.7,108.89 -25.13,30.03 -59.21,59.56 -102.22,72.5l149.01 183.5zm-238.05 -229.33c30.29,0 57.7,-5.31 82.23,-15.93 24.53,-10.61 43.63,-33.28 57.24,-51.91 13.62,-18.64 20.44,-43.9 20.44,-67.72 0,-24.86 -6.82,-51.15 -20.44,-70.82 -13.62,-19.67 -32.55,-38.97 -56.78,-49.85 -24.23,-10.88 -51.79,-16.31 -82.68,-16.31l-134.47 0 0 272.54 134.47 0zm537.57 -152.9c38.32,0 72.25,8.93 101.77,26.8 29.52,17.87 52.45,42.62 68.76,74.2 16.3,31.58 24.47,67.59 24.47,107.99 0,8.29 -2.61,14.91 -7.77,19.81 -5.17,4.91 -11.94,7.38 -20.2,7.38l-313.87 0c4.14,42.47 20.73,76.93 49.72,103.33 28.98,26.4 65.26,39.62 108.76,39.62 18.65,0 37.44,-3.25 56.33,-9.71 18.89,-6.46 33.87,-14.88 45.45,-24.47 6.53,-5.41 13.73,-7.77 20.98,-7.77 5.7,0 11.7,1.72 17.09,6.22 7.03,5.85 10.1,13.21 10.1,20.98 0,6.73 -2.74,12.85 -8.55,17.87 -16.95,14.64 -38.86,26.56 -65.26,36.13 -26.4,9.57 -51.8,14.37 -76.14,14.37 -41.43,0 -78.48,-9.21 -111.09,-27.58 -32.62,-18.37 -58.15,-44.04 -76.53,-76.91 -18.37,-32.88 -27.58,-70.05 -27.58,-111.49 0,-41.95 8.69,-79.39 26.02,-112.26 17.34,-32.88 41.45,-58.54 72.26,-76.91 30.8,-18.37 65.91,-27.58 105.27,-27.58zm0 53.61c-39.37,0 -72.02,12.19 -97.89,36.51 -25.89,24.33 -41.69,56.46 -47.39,96.34l284.35 0c-4.14,-39.88 -18.66,-72.01 -43.5,-96.34 -24.85,-24.33 -56.72,-36.51 -95.56,-36.51zm-4.67 -89.35c-7.77,0 -14.38,-2.74 -19.81,-8.16 -5.43,-5.43 -8.16,-12.04 -8.16,-19.81l0 -21.75c0,-16.57 8.22,-26.98 24.86,-30.3l19.43 -3.88c21.44,-4.28 31.85,-16.58 31.85,-34.19 0,-11.39 -3.63,-20.2 -10.87,-26.41 -7.25,-6.22 -16.58,-9.32 -27.97,-9.32 -11.91,0 -23.69,3.69 -34.19,12.43 -5.05,4.2 -11.13,6.99 -19.42,6.99 -6.73,0 -12.57,-2.34 -17.48,-6.99 -4.91,-4.65 -7.38,-10.62 -7.38,-17.87 0,-8.8 3.03,-15.92 9.32,-20.98 20.1,-16.15 42.99,-24.08 68.37,-24.08 26.42,0 48.19,7.65 65.26,22.92 17.08,15.26 25.64,35.09 25.64,59.43 0,22.79 -7.25,40.53 -21.75,53.22 -14.5,12.69 -33.41,20.85 -56.71,24.47l6.21 10.1c0,10.36 -2.61,18.66 -7.77,24.86 -5.17,6.2 -11.65,9.32 -19.42,9.32zm1109.59 -142.17c7.08,0 13.06,2.86 17.92,8.55 4.85,5.69 7.3,12.97 7.3,21.75l0 546.17c0,8.26 -6.46,15.43 -11.31,21.36 -4.85,5.94 -10.83,8.94 -17.92,8.94 -7.52,0 -17.85,-3 -22.92,-8.94 -5.06,-5.93 -7.63,-13.07 -7.63,-21.36l0 -423.69 -176.44 425.24c-4.32,10.41 -12.82,14.76 -22.56,14.76 -11.06,0 -18.7,-6.42 -23.89,-18.65l-175.77 -414.36 0 416.69c0,8.24 -2.46,15.43 -7.3,21.36 -4.85,5.93 -15.07,8.94 -22.59,8.94 -7.08,0 -13.17,-2.99 -18.25,-8.94 -5.08,-5.94 -11.64,-13.07 -11.64,-21.36l0 -546.17c0,-8.8 2.55,-16.06 7.63,-21.75 5.08,-5.69 11.17,-8.55 18.25,-8.55 10.17,0 18.53,4.8 23.22,15.54l212.33 486.09 208.35 -486.09c4.63,-10.81 13.05,-15.54 23.22,-15.54zm497.87 181.8c8.8,0 16.06,2.72 21.76,8.16 5.7,5.44 8.55,12.57 8.55,21.36l0 365.15c0,8.8 -2.85,16.06 -8.55,21.75 -5.7,5.7 -12.95,8.55 -21.76,8.55 -8.81,0 -15.93,-2.85 -21.36,-8.55 -5.43,-5.69 -8.16,-12.95 -8.16,-21.75l0 -26.41c-17.09,19.16 -37.81,34.19 -62.15,45.06 -24.34,10.87 -50.76,16.31 -79.24,16.31 -36.77,0 -69.8,-7.77 -99.06,-23.31 -29.26,-15.54 -52.19,-38.2 -68.76,-67.98 -16.57,-29.78 -24.86,-65.39 -24.86,-106.83l0 -201.99c0,-8.28 2.85,-15.28 8.55,-20.98 5.7,-5.7 12.69,-8.54 20.98,-8.54 8.8,0 16.06,2.85 21.75,8.54 5.7,5.7 8.55,12.7 8.55,20.98l0 201.99c0,46.09 12.82,81.19 38.46,105.28 25.63,24.08 59.17,36.13 100.61,36.13 25.38,0 48.3,-4.93 68.76,-14.76 20.45,-9.83 36.64,-23.44 48.56,-40.79 11.91,-17.35 17.87,-36.64 17.87,-57.88l0 -229.96c0,-8.8 2.72,-15.93 8.16,-21.36 5.44,-5.44 12.56,-8.16 21.36,-8.16zm360.89 428.85c-40.92,0 -77.83,-9.33 -110.71,-27.97 -32.88,-18.64 -58.66,-44.42 -77.3,-77.3 -18.65,-32.89 -27.97,-69.79 -27.97,-110.71 0,-40.92 9.32,-77.95 27.97,-111.1 18.65,-33.15 44.42,-59.05 77.3,-77.69 32.89,-18.64 69.8,-27.97 110.71,-27.97 40.91,0 77.69,9.32 110.32,27.97 32.63,18.65 58.4,44.54 77.3,77.69 18.9,33.15 28.35,70.18 28.35,111.1 0,40.92 -9.32,77.82 -27.96,110.71 -18.65,32.89 -44.42,58.66 -77.3,77.3 -32.89,18.64 -69.8,27.97 -110.71,27.97zm0 -54.39c30.04,0 56.98,-7 80.8,-20.98 23.82,-13.98 42.46,-33.28 55.93,-57.88 13.47,-24.6 20.2,-52.18 20.2,-82.74 0,-31.07 -6.74,-58.92 -20.2,-83.52 -13.46,-24.6 -32.11,-43.9 -55.93,-57.88 -23.82,-13.98 -50.76,-20.98 -80.8,-20.98 -29.52,0 -56.33,7 -80.41,20.98 -24.08,13.98 -42.99,33.28 -56.71,57.88 -13.72,24.59 -20.59,52.44 -20.59,83.52 0,30.56 6.86,58.14 20.59,82.74 13.72,24.6 32.63,43.9 56.71,57.88 24.08,13.98 50.89,20.98 80.41,20.98zm-90.12 -442.06c-8.81,0 -16.19,-2.46 -22.14,-7.38 -5.96,-4.92 -8.94,-11.52 -8.94,-19.81 0,-10.87 4.82,-19.83 14.76,-26.41l91.67 -60.6c4.08,-2.69 9.06,-3.89 14.76,-3.89 5.18,0 10.72,0.68 15.54,3.89l90.9 60.6c9.92,6.61 14.76,15.54 14.76,26.41 0,7.77 -2.85,14.25 -8.55,19.43 -5.69,5.18 -12.95,7.77 -21.75,7.77 -5.7,0 -12.14,-1.73 -18.65,-6.21l-72.25 -49.72 -72.26 49.72c-5.79,3.99 -11.65,6.21 -17.87,6.21zm159.26 -128.19c-8.81,0 -16.06,-2.98 -21.75,-8.93 -5.69,-5.96 -8.55,-13.08 -8.55,-21.37 0,-8.28 2.07,-15.27 6.99,-20.2l87.79 -87.8c5.69,-5.7 12.69,-8.54 20.98,-8.54 8.8,0 16.06,2.97 21.76,8.93 5.69,5.96 8.54,13.34 8.54,22.14 0,8.29 -3.13,14.74 -8.54,20.2l-87.01 87.79c-5.15,5.19 -11.92,7.77 -20.2,7.77zm453.86 191.12c36.78,0 69.79,7.77 99.06,23.31 29.26,15.54 52.18,38.2 68.76,67.98 16.57,29.78 24.86,65.41 24.86,106.82l0 202c0,8.27 -2.85,15.28 -8.54,20.97 -5.7,5.7 -12.69,8.55 -20.98,8.55 -8.81,0 -16.06,-2.85 -21.75,-8.55 -5.7,-5.69 -8.55,-12.69 -8.55,-20.97l0 -202c0,-46.09 -12.83,-81.19 -38.46,-105.27 -25.63,-24.08 -59.18,-36.13 -100.61,-36.13 -25.38,0 -48.3,4.93 -68.75,14.76 -20.45,9.83 -36.65,23.44 -48.56,40.79 -11.9,17.34 -17.87,36.66 -17.87,57.88l0 229.96c0,8.79 -2.72,15.93 -8.16,21.36 -5.44,5.44 -12.56,8.16 -21.37,8.16 -8.8,0 -16.06,-2.73 -21.76,-8.16 -5.69,-5.43 -8.54,-12.56 -8.54,-21.36l0 -365.15c0,-8.81 2.85,-16.06 8.54,-21.76 5.7,-5.7 12.95,-8.54 21.76,-8.54 8.81,0 15.94,2.85 21.37,8.54 5.43,5.69 8.16,12.96 8.16,21.76l0 26.41c17.09,-19.17 37.81,-34.19 62.15,-45.06 24.34,-10.87 50.76,-16.32 79.24,-16.32zm650.61 429.63c-8.81,0 -16.06,-2.85 -21.75,-8.55 -5.69,-5.69 -8.55,-12.95 -8.55,-21.75l0 -546.17c0,-8.8 2.85,-16.05 8.55,-21.75 5.7,-5.69 12.94,-8.55 21.75,-8.55l155.38 0c37.81,0 71.6,8.42 101.39,25.25 29.78,16.83 52.96,40.14 69.53,69.92 16.57,29.78 24.86,63.84 24.86,102.17 0,37.81 -8.29,71.48 -24.86,101 -16.57,29.53 -39.76,52.57 -69.53,69.15 -29.78,16.57 -63.58,24.86 -101.39,24.86l-125.08 0 0 184.13c0,8.8 -2.85,16.06 -8.54,21.75 -5.7,5.7 -12.95,8.55 -21.76,8.55zm155.38 -272.69c26.41,0 49.98,-5.83 70.7,-17.48 20.72,-11.65 36.91,-27.84 48.56,-48.56 11.65,-20.71 17.48,-44.28 17.48,-70.7 0,-26.93 -5.83,-50.89 -17.48,-71.87 -11.65,-20.97 -27.84,-37.42 -48.56,-49.33 -20.71,-11.91 -44.29,-17.87 -70.7,-17.87l-125.08 0 0 275.8 125.08 0zm544.7 -156.94c36.78,0 69.79,7.77 99.06,23.31 29.26,15.54 52.18,38.2 68.76,67.98 16.57,29.78 24.86,65.39 24.86,106.82l0 202c0,8.28 -2.85,15.28 -8.55,20.97 -5.7,5.7 -12.69,8.55 -20.98,8.55 -8.81,0 -16.06,-2.85 -21.75,-8.55 -5.7,-5.69 -8.55,-12.69 -8.55,-20.97l0 -202c0,-46.09 -12.82,-81.19 -38.46,-105.27 -25.64,-24.08 -59.17,-36.13 -100.61,-36.13 -25.38,0 -48.3,4.92 -68.75,14.76 -20.46,9.83 -36.65,23.44 -48.56,40.79 -11.91,17.34 -17.87,36.65 -17.87,57.88l0 229.96c0,8.8 -2.72,15.93 -8.16,21.36 -5.44,5.44 -12.56,8.16 -21.37,8.16 -8.8,0 -16.06,-2.72 -21.75,-8.16 -5.7,-5.43 -8.54,-12.56 -8.54,-21.36l0 -546.94c0,-8.8 2.85,-16.06 8.54,-21.75 5.69,-5.7 12.95,-8.55 21.75,-8.55 8.81,0 15.93,2.85 21.37,8.55 5.44,5.7 8.16,12.95 8.16,21.75l0 208.21c17.09,-19.17 37.81,-34.19 62.15,-45.06 24.34,-10.87 50.76,-16.32 79.24,-16.32zm543.56 0.78c40.4,0 77.04,9.45 109.93,28.36 32.89,18.91 58.79,44.93 77.69,78.07 18.9,33.15 28.35,69.93 28.35,110.32l0 182.57c0,8.28 -2.85,15.28 -8.54,20.97 -5.7,5.7 -12.95,8.55 -21.76,8.55 -8.8,0 -16.06,-2.72 -21.76,-8.16 -5.69,-5.43 -8.55,-12.56 -8.55,-21.36l0 -46.61c-18.13,24.86 -41.18,44.41 -69.14,58.65 -27.97,14.24 -58.79,21.37 -92.46,21.37 -39.36,0 -74.97,-9.46 -106.82,-28.36 -31.85,-18.9 -56.97,-44.8 -75.36,-77.69 -18.39,-32.89 -27.58,-69.53 -27.58,-109.93 0,-40.4 9.45,-77.18 28.35,-110.32 18.9,-33.15 44.8,-59.17 77.69,-78.07 32.89,-18.91 69.54,-28.36 109.93,-28.36zm0 378.35c29.52,0 56.2,-6.99 80.02,-20.98 23.83,-13.98 42.6,-33.28 56.32,-57.88 13.72,-24.6 20.59,-52.18 20.59,-82.74 0,-30.56 -6.87,-58.14 -20.59,-82.74 -13.72,-24.59 -32.5,-44.03 -56.32,-58.26 -23.82,-14.24 -50.5,-21.37 -80.02,-21.37 -29.52,0 -56.33,7.13 -80.41,21.37 -24.08,14.24 -42.99,33.67 -56.71,58.26 -13.72,24.6 -20.59,52.19 -20.59,82.74 0,30.56 6.86,58.14 20.59,82.74 13.72,24.6 32.63,43.9 56.71,57.88 24.08,13.98 50.89,20.98 80.41,20.98zm-5.44 -438.95c-8.8,0 -16.06,-2.98 -21.75,-8.93 -5.7,-5.96 -8.55,-13.08 -8.55,-21.37 0,-8.28 2.06,-15.27 6.99,-20.2l87.79 -87.79c5.7,-5.7 12.69,-8.55 20.98,-8.55 8.8,0 16.06,2.98 21.75,8.93 5.69,5.95 8.55,13.34 8.55,22.14 0,8.29 -3.13,14.74 -8.55,20.2l-87.01 87.79c-5.15,5.2 -11.92,7.77 -20.2,7.77zm490.39 429.63c8.29,0 15.03,2.85 20.2,8.54 5.17,5.69 7.77,12.95 7.77,21.76 0,8.28 -3.11,15.29 -9.32,20.97 -6.21,5.69 -14,8.55 -23.31,8.55l-16.31 0c-27.44,0 -52.05,-6.61 -73.8,-19.81 -21.76,-13.21 -38.72,-31.07 -50.89,-53.61 -12.17,-22.53 -18.26,-48.04 -18.26,-76.52 0,-244.27 0,-244.69 0,-432.04 0,-8.8 2.72,-16.06 8.16,-21.76 5.44,-5.7 12.56,-8.54 21.36,-8.54 8.81,0 16.08,2.87 21.75,8.54 5.68,5.68 8.55,12.99 8.55,21.76l0 140.47 87.79 0c8.29,0 14.9,2.47 19.81,7.38 4.91,4.91 7.38,11.26 7.38,19.04 0,7.25 -2.46,13.33 -7.38,18.26 -4.92,4.92 -11.54,7.38 -19.81,7.38l-87.79 0 0 239.52c0,26.39 7.78,48.05 23.31,64.87 15.53,16.82 35.48,25.25 59.82,25.25l20.98 0zm834.66 -243.18c7.47,0 13.62,2.72 18.46,8.16 4.83,5.44 7.25,12.57 7.25,21.37l0 192.67c0,8.8 -2.25,16.27 -7.25,21.76 -40.7,44.75 -94.7,66.81 -161.49,66.81 -46.57,0 -89.43,-13.99 -128.53,-41.95 -39.1,-27.96 -70.2,-65.78 -93.26,-113.43 -23.06,-47.65 -34.61,-99.7 -34.61,-156.16 0,-55.94 11.43,-107.74 34.28,-155.39 22.84,-47.64 53.83,-85.46 92.93,-113.43 39.11,-27.96 82.17,-41.95 129.19,-41.95 31.64,0 60.43,5.44 86.35,16.31 25.92,10.87 50.76,28.54 75.14,52.05 4.62,4.46 7.25,10.1 7.25,17.87 0,4.15 -0.88,7.9 -2.64,11.26 -1.76,3.37 -4.17,5.83 -7.25,7.38 -0.88,3.63 -2.86,6.61 -5.93,8.93 -3.07,2.33 -6.37,3.5 -9.89,3.5 -6.15,0 -11.62,-2.62 -16.48,-7.77 -17.11,-18.15 -35.82,-31.34 -56.03,-39.62 -20.21,-8.28 -43.72,-12.43 -70.53,-12.43 -36.91,0 -71.19,11.52 -102.82,34.57 -31.63,23.04 -56.8,54 -75.47,92.84 -18.67,38.84 -28.02,80.8 -28.02,125.86 0,46.09 9.23,88.57 27.68,127.41 18.45,38.85 43.51,69.67 75.14,92.45 31.63,22.79 66.13,34.19 103.48,34.19 42.62,0 82.17,-14.76 118.64,-44.29l0 -155.38 -102.82 0c-7.46,0 -13.63,-2.59 -18.46,-7.77 -4.83,-5.18 -7.24,-11.65 -7.24,-19.43 0,-7.77 2.42,-14.11 7.24,-19.03 4.83,-4.92 10.99,-7.39 18.46,-7.39l127.21 0zm363.69 -126.63c36.78,0 69.79,7.77 99.06,23.31 29.26,15.54 52.18,38.2 68.76,67.98 16.57,29.78 24.86,65.4 24.86,106.82l0 202c0,8.28 -2.85,15.28 -8.55,20.97 -5.7,5.7 -12.69,8.55 -20.98,8.55 -8.81,0 -16.06,-2.85 -21.75,-8.55 -5.69,-5.69 -8.55,-12.69 -8.55,-20.97l0 -202c0,-46.09 -12.82,-81.19 -38.46,-105.27 -25.63,-24.08 -59.17,-36.13 -100.61,-36.13 -25.38,0 -48.3,4.93 -68.75,14.76 -20.46,9.83 -36.65,23.44 -48.56,40.79 -11.91,17.34 -17.87,36.65 -17.87,57.88l0 229.96c0,8.8 -2.72,15.93 -8.15,21.36 -5.44,5.44 -12.56,8.16 -21.37,8.16 -8.8,0 -16.06,-2.72 -21.75,-8.16 -5.69,-5.43 -8.54,-12.56 -8.54,-21.36l0 -546.94c0,-8.8 2.85,-16.06 8.54,-21.75 5.69,-5.69 12.95,-8.55 21.75,-8.55 8.81,0 15.93,2.85 21.37,8.55 5.44,5.7 8.15,12.96 8.15,21.75l0 208.21c17.09,-19.17 37.81,-34.19 62.15,-45.06 24.34,-10.87 50.76,-16.32 79.24,-16.32zm519.1 0.78c38.33,0 72.26,8.93 101.78,26.8 29.52,17.87 52.44,42.61 68.75,74.2 16.31,31.59 24.48,67.59 24.48,107.99 0,8.29 -2.6,14.9 -7.77,19.81 -5.17,4.91 -11.93,7.38 -20.2,7.38l-313.87 0c4.14,42.47 20.72,76.92 49.72,103.33 29,26.41 65.26,39.62 108.77,39.62 18.65,0 37.43,-3.25 56.33,-9.71 18.9,-6.47 33.86,-14.88 45.44,-24.47 6.54,-5.41 13.73,-7.77 20.98,-7.77 5.7,0 11.69,1.72 17.09,6.22 7.03,5.87 10.1,13.21 10.1,20.98 0,6.73 -2.73,12.85 -8.55,17.87 -16.96,14.64 -38.85,26.56 -65.26,36.13 -26.41,9.57 -51.8,14.37 -76.14,14.37 -41.43,0 -78.48,-9.2 -111.1,-27.58 -32.62,-18.38 -58.15,-44.04 -76.52,-76.91 -18.38,-32.88 -27.58,-70.05 -27.58,-111.49 0,-41.95 8.68,-79.38 26.02,-112.26 17.35,-32.88 41.44,-58.53 72.25,-76.91 30.81,-18.38 65.91,-27.58 105.27,-27.58zm0 53.61c-39.36,0 -72,12.18 -97.89,36.51 -25.89,24.33 -41.69,56.46 -47.39,96.34l284.35 0c-4.14,-39.88 -18.65,-72 -43.51,-96.34 -24.85,-24.33 -56.72,-36.51 -95.56,-36.51zm526.59 -54.39c36.78,0 69.79,7.77 99.06,23.31 29.26,15.54 52.18,38.2 68.76,67.98 16.57,29.78 24.86,65.41 24.86,106.82l0 202c0,8.26 -2.85,15.28 -8.55,20.97 -5.69,5.7 -12.69,8.55 -20.97,8.55 -8.81,0 -16.06,-2.85 -21.76,-8.55 -5.69,-5.69 -8.54,-12.69 -8.54,-20.97l0 -202c0,-46.09 -12.83,-81.2 -38.46,-105.27 -25.63,-24.07 -59.17,-36.13 -100.61,-36.13 -25.38,0 -48.31,4.93 -68.75,14.76 -20.45,9.83 -36.66,23.45 -48.56,40.79 -11.9,17.33 -17.87,36.67 -17.87,57.88l0 229.96c0,8.78 -2.72,15.93 -8.16,21.36 -5.44,5.44 -12.56,8.16 -21.37,8.16 -8.8,0 -16.07,-2.73 -21.75,-8.16 -5.68,-5.43 -8.54,-12.56 -8.54,-21.36l0 -365.15c0,-8.81 2.85,-16.06 8.54,-21.76 5.7,-5.7 12.95,-8.54 21.75,-8.54 8.81,0 15.94,2.86 21.37,8.54 5.43,5.69 8.16,12.97 8.16,21.76l0 26.41c17.09,-19.17 37.81,-34.19 62.15,-45.06 24.34,-10.87 50.76,-16.32 79.24,-16.32z"/>
   <path class="fil1" d="M376.31 7135.54l636.36 0 -0.8 140.29 -38.96 -0.16 -0.96 -70.79 -552.42 -0.81 0.82 1050.37 575.15 269.22 -1.22 256.57 -611.05 -0.41 -0.37 -106.92 40.94 -0.39 0.02 41.28 525.59 -2.5 -0.82 -146.43 -573.93 -268.83 1.64 -1160.5zm6086 1.63l635.52 4.91 -1.76 239.29 -60.24 -0.67 1.5 -177.03 -535.05 0.4 0.81 1029.17 557.64 4.7 -0.01 -47.41 48.13 -1.34 -2.45 179.75 -44.38 -0.75 0.11 -78.52 -559.84 -0.28 0 423.14 533.32 2.3 -0.59 -184.64 64.28 0.45 -1.47 243.48 -635.93 3.68 0.42 -1640.63zm773.55 4.08l652.25 -0.41 2.3 1163.82 -56.52 0.8 56.62 54.17 0.86 433.54 -58.74 -0.52 -3.43 -409.91 -64.11 -76.05 -464.37 -1.26 -1.63 487.42 -66.08 0.08 2.85 -1651.68zm64.86 62.82l0 0 0 1059.34 529.47 0 0 -1059.34 -529.47 0zm-3322.29 -45.28l437.69 1.22 131.76 327.96 0.4 901.08 -172.13 403.43 -353.26 2.04 -169.69 -324.7 -0.4 -982.25 125.63 -328.78zm36.71 53.3l-96.81 234.68 1.63 1061.39 108.98 213.6 337.2 0.35 116.6 -285.2 0 -989.32 -106.2 -235.5 -361.41 0zm-2010.46 -70.44l63.97 -0.04c110.16,515.62 220.32,1031.23 330.48,1546.85 8.62,27.29 61.17,52.02 70.7,39.97l2.85 -1514.06 -85.99 -0.76 0.34 -50.74 193.21 -0.82 -1.05 51.61 -48.3 -0.31 -8.57 1562.8 -165.21 -2.44 -298.18 -1406.01 -8.15 1350.59 77.06 0.61 -0.98 60.24 -194.39 -1.3 0.82 -58.53 57.06 -0.6 14.33 -1577.06zm3578.47 2.45l524.17 7.34 113.8 295.33 0 1022.64 -109.72 321.44 -531.11 0 2.85 -1646.75zm53.85 63.57l2.84 1524.5 443.81 0 94.63 -303.98 0 -940.63 -93.82 -279.08 -447.47 -0.81zm-909.65 -66.43l652.25 -0.41 2.3 1163.82 -56.52 0.8 56.62 54.17 0.86 433.54 -58.74 -0.52 -3.43 -409.91 -64.1 -76.05 -464.37 -1.26 -1.63 487.42 -66.08 0.08 2.85 -1651.68zm64.86 62.82l0 0 0 1059.34 529.47 0 0 -1059.34 -529.47 0zm-3637.61 -66.9l635.52 4.91 -1.76 239.29 -60.24 -0.67 1.5 -177.03 -535.05 0.4 0.81 1029.17 557.64 4.7 -0.01 -47.41 48.13 -1.34 -2.45 183.76 -44.38 -0.75 0.1 -78.52 -559.83 -0.28 0 419.13 533.32 2.3 -0.59 -184.64 64.28 0.45 -1.47 243.48 -635.93 3.68 0.42 -1640.63z"/>
   <polygon class="fil1" points="3504.56,2441.5 4808,2441.5 4806.37,2728.85 4726.58,2728.52 4724.61,2539.43 3593.11,2537.77 3594.8,4745.34 4772.86,5296.78 4770.35,5810.29 3518.75,5809.46 3517.99,5590.46 3601.85,5589.65 3601.9,5718.3 4678.46,5713.19 4676.77,5369.15 3501.2,4818.53 "/>
   <path class="fil1" d="M6465.57 4319.38c-15.18,86.74 -72.68,128.33 -121.49,163.65 -14.9,10.78 -28.93,20.93 -39.73,31.08 -33.43,31.43 -38.43,70.69 52.75,167.69 97.64,103.86 81.05,173.55 23.11,228.01 -34.42,32.36 -83.53,57.75 -130.5,82.03 -74.9,38.72 -143.72,74.3 -118.17,123.11 111.58,213.17 126.54,283.69 77.37,309.42 -22.27,11.66 -55.21,10.56 -97.75,9.13 -54.37,-1.81 -125.85,-4.2 -203.54,19.49 -38.19,11.65 -37.12,86.68 -35.98,166.57 0.61,42.61 1.24,86.49 -4.14,125.15 -11.03,79.33 -45.3,136.75 -145.93,122.75 -29.78,-4.14 -58.67,-11.15 -86,-17.77 -27.67,-6.7 -53.7,-13.01 -76.38,-15.19 -51.33,-4.92 -88.29,14.09 -97.75,112.74 -18.85,196.48 -103.52,239.95 -197.66,230.93 -56.22,-5.39 -114.48,-30.6 -163.11,-51.64 -42.48,-18.38 -76.57,-33.12 -84.44,-27.59 -33.97,23.87 -44.73,89.53 -55.07,152.67 -8.04,49.06 -15.85,96.75 -35,128.61 -25.91,43.11 -67.29,57.49 -142.78,12.11 -18.51,-11.13 -60.53,-31.57 -106.74,-50.59 -36.94,-15.21 -76.45,-29.43 -108.41,-37.04 -24.83,-5.91 -42.72,-8.76 -45.3,-5.65 -96.35,233.89 -167.87,278.68 -232.68,252 -35.76,-14.72 -66.09,-51.3 -97.45,-89.13 -43.65,-52.66 -89.61,-108.09 -145.21,-93.05 -105.6,28.58 -176.41,67.42 -227.72,95.56 -25.26,13.85 -46,25.22 -64.69,32.11 -70.84,26.09 -103.37,-5.02 -167.41,-178.88 -40.75,-110.66 -134.7,-78.44 -226.7,-46.89 -41.96,14.39 -83.57,28.67 -122.23,31.52 -78.91,5.83 -140.02,-32.52 -152.26,-197.98 -8.12,-109.81 -34.61,-141.39 -69.02,-138.84 -30.33,2.24 -69.71,26.85 -108.97,51.37 -70.46,44.02 -140.61,87.83 -188.93,27.96 -43.43,-53.82 -52.95,-128.76 -61.9,-199.27 -11.85,-93.33 -22.59,-177.95 -119.31,-172.6 -224.07,12.39 -275.7,-7.81 -278.91,-65.82 -0.97,-17.57 3.48,-37.09 8.77,-60.22 12.17,-53.26 29.2,-127.9 -16.02,-224.63 -36.8,-78.71 -121.73,-99.14 -191.04,-115.8 -59.49,-14.3 -109.09,-26.24 -121.49,-69.37 -15.5,-53.92 31.22,-118.34 76.81,-181.2 24.08,-33.2 47.84,-65.95 60.07,-93.96 12.84,-29.43 11.61,-54.09 -21.5,-68.55 -28.12,-12.27 -129.44,-82.6 -192.57,-145.51 -18.56,-18.49 -34.08,-36.52 -43.97,-52.6l0.05 -0.03c-12.2,-19.84 -16.69,-38.19 -9.98,-53.55 1.8,-4.12 4.33,-7.88 7.66,-11.2 44.75,-44.9 81.54,-80.33 111.24,-108.93 64.89,-62.48 94.1,-90.6 94.71,-106.41 0.37,-9.57 -16.27,-21.95 -46.52,-44.46 -34.31,-25.52 -83.52,-62.11 -143.86,-124.6 -96.46,-99.89 35.74,-231.81 130.59,-326.46 40.79,-40.7 73.67,-73.52 72.49,-83.37 -5.79,-48.44 -40.42,-84.24 -74.87,-119.86 -49.5,-51.18 -98.68,-102.04 -80.56,-191.33 4.81,-23.72 51.07,-46.68 107.4,-74.63 17.43,-8.65 35.93,-17.83 54.65,-27.66l0.07 0c76.9,-40.37 152.35,-88.5 128.48,-133.98 -110.98,-211.42 -128.57,-280.06 -79.75,-305.74 21.16,-11.15 52.59,-10.55 93.91,-9.76 54.33,1.03 127.32,2.43 209.46,-22.67 38.09,-11.64 36.99,-86.72 35.81,-166.68 -0.63,-42.94 -1.28,-87.18 4.19,-126.05 11.14,-79.06 45.53,-136.09 145.85,-121.96 29.43,4.15 57.41,10.68 83.89,16.86 27.76,6.48 53.88,12.57 76.32,14.73 52.7,5.07 90.46,-13.41 99.87,-111.28 18.88,-196.36 103.53,-239.82 197.63,-230.77 56.33,5.41 114.68,30.72 163.36,51.83 42.44,18.41 76.48,33.17 84.31,27.67 33.83,-23.7 44.62,-89.33 55,-152.47 8.09,-49.2 15.94,-97.04 35.15,-128.91 25.97,-43.11 67.43,-57.45 143.01,-11.92 18.71,11.27 61.3,31.99 107.87,51.1 36.81,15.11 76.03,29.17 107.63,36.62 24.85,5.87 42.66,8.62 44.94,5.32 96.08,-233.86 167.57,-278.71 232.41,-252.1 35.7,14.65 66.11,51.28 97.54,89.15 43.74,52.68 89.76,108.12 145.3,92.91 106.53,-29.17 177.73,-68.08 229.09,-96.15 25.27,-13.8 45.96,-25.11 64.25,-31.85 70.91,-26.11 102.35,5.32 166.38,179.18 41.86,113.66 136.37,80.18 228.48,47.55 42.25,-14.96 84.07,-29.78 122.75,-32.65 77.75,-5.75 137.7,33.09 149.94,198.49 7.87,106.42 33.56,135.99 67.33,133.5 26.91,-1.99 61.43,-21.05 96.74,-40.55 29.19,-16.12 58.89,-32.52 88.11,-41.51 60.63,-18.65 114.61,-6.89 145.67,94.07 7.58,24.65 17.39,42.17 26.39,58.23 15.83,28.28 29.46,52.62 28.93,101.39l-0.31 18.93c-0.3,16.21 -0.58,31.19 0.17,44.78 2.33,42.28 17.76,66.88 95.07,62.61 224.06,-12.37 275.69,7.83 278.89,65.84 0.97,17.57 -3.48,37.08 -8.77,60.22 -12.18,53.28 -29.2,127.93 16.01,224.64 36.79,78.7 121.72,99.14 191.04,115.82 59.48,14.31 109.07,26.25 121.47,69.37 15.48,53.92 -31.24,118.34 -76.83,181.19 -24.09,33.21 -47.85,65.96 -60.07,93.98 -12.84,29.44 -11.61,54.1 21.49,68.55 28.12,12.27 129.43,82.6 192.54,145.5 18.56,18.49 34.07,36.53 43.97,52.6 12.19,19.82 16.67,38.18 9.94,53.59 -1.79,4.12 -4.33,7.87 -7.66,11.2 -44.78,44.94 -81.61,80.39 -111.32,108.99 -64.85,62.44 -94.05,90.54 -94.66,106.35 -0.37,9.58 16.28,21.96 46.54,44.47 34.3,25.52 83.5,62.11 143.83,124.6 41.83,43.31 24.69,87.05 7.45,131.06 -4.1,10.48 -8.22,20.99 -11.11,30.69zm-142.22 135.05c43.59,-31.52 94.94,-68.68 107.51,-141.61l17.92 3.06 -17.43 -5.05c3.52,-12.2 8,-23.61 12.46,-34.99 13.11,-33.45 26.13,-66.71 0.01,-93.75 -58.35,-60.43 -106.11,-95.96 -139.42,-120.74 -39.9,-29.67 -61.84,-46.01 -60.76,-74.03 1.17,-30.15 33.53,-61.3 105.43,-130.52 29.69,-28.58 66.49,-64.01 110.77,-108.44l0.33 -0.43c1.51,-3.46 -1.55,-10.94 -7.72,-20.98 -8.47,-13.76 -22.17,-29.62 -38.72,-46.11 -60.43,-60.22 -155.72,-126.8 -181.77,-138.17 -57.91,-25.28 -60.93,-66.4 -39.73,-114.98 13.85,-31.73 38.66,-65.93 63.81,-100.61 40.59,-55.97 82.2,-113.33 71.44,-150.79 -6.72,-23.38 -47.14,-33.11 -95.63,-44.78 -76.77,-18.47 -170.83,-41.11 -214.8,-135.17 -50.38,-107.76 -31.78,-189.23 -18.5,-247.37l0 -0.07c4.69,-20.52 8.64,-37.82 7.94,-50.41 -1.81,-32.78 -46.43,-43.33 -241.73,-32.55 -107.13,5.92 -128.69,-31.61 -132.24,-95.91 -0.79,-14.22 -0.48,-30.1 -0.17,-47.27l0.31 -18.65c0.43,-39.31 -11.11,-59.91 -24.51,-83.85 -9.82,-17.54 -20.54,-36.67 -29.29,-65.13 -22.8,-74.13 -60.13,-83.48 -101.59,-70.72 -25.56,7.86 -53.76,23.44 -81.48,38.74 -38.7,21.37 -76.54,42.27 -111.24,44.83 -54.52,4.03 -95.15,-32.52 -105.04,-166.24 -10.16,-137.36 -54.77,-170 -112.22,-165.75 -33.88,2.51 -73.48,16.54 -113.5,30.71 -108.31,38.38 -219.45,77.74 -273.39,-68.68 -53.99,-146.61 -76.7,-174.52 -121.06,-158.19 -16.33,6.01 -35.79,16.65 -59.56,29.64 -52.84,28.88 -126.09,68.91 -236.69,99.19 -77.39,21.19 -130.85,-43.19 -181.64,-104.37 -28.57,-34.43 -56.22,-67.72 -83.87,-79.07 -45.7,-18.75 -100.98,24.75 -186.66,233.54 -0.63,1.45 -1.32,2.82 -2.08,4.09l0.05 0.03c-11.71,19.46 -43.39,20.33 -83.27,10.92 -33.33,-7.87 -74.47,-22.61 -113.02,-38.42 -48.45,-19.88 -92.99,-41.57 -112.7,-53.45 -52.62,-31.7 -79.46,-25.07 -94.51,-0.09 -15.76,26.17 -23.07,70.62 -30.58,116.34 -11.56,70.32 -23.57,143.4 -69.64,175.69 -23.94,16.77 -66,-1.47 -118.44,-24.22 -46.34,-20.1 -101.89,-44.19 -152.71,-49.07 -75.15,-7.22 -143.03,30.52 -159.23,199 -12.17,126.59 -64.69,150.13 -138.27,143.06 -25.42,-2.44 -52.37,-8.74 -81.03,-15.43 -25.92,-6.05 -53.3,-12.44 -80.7,-16.3 -72.61,-10.22 -97.71,32.61 -106.06,91.84 -5.16,36.61 -4.53,79.33 -3.92,120.79 1.37,93.57 2.66,181.41 -60.82,200.81 -87.44,26.72 -163.56,25.27 -220.24,24.19 -36.17,-0.69 -63.7,-1.21 -76.93,5.73l-0.07 0c-24.76,13 -3.72,70.89 94.62,258.23 38.11,72.59 -51.03,133.03 -143.34,181.48 -18.54,9.77 -37.55,19.21 -55.46,28.09 -47.84,23.74 -87.12,43.23 -88.47,49.9 -14.45,71.17 28.35,115.43 71.43,159.96 38.57,39.88 77.34,79.97 84.54,140.17 3.2,26.78 -35.15,65.06 -82.72,112.52 -84.57,84.39 -202.45,202.01 -130.04,277 58.36,60.44 106.13,95.97 139.44,120.74 39.89,29.67 61.83,46 60.75,74.02 -1.16,30.15 -33.54,61.32 -105.48,130.59 -29.68,28.57 -66.45,63.98 -110.69,108.37l-0.33 0.43c-1.53,3.52 1.5,10.98 7.66,20.98l0.07 0c8.47,13.76 22.17,29.61 38.72,46.1 60.43,60.22 155.74,126.81 181.8,138.19 57.91,25.28 60.93,66.4 39.74,114.97 -13.85,31.73 -38.65,65.93 -63.8,100.59 -40.59,55.96 -82.2,113.33 -71.42,150.8 6.72,23.39 47.16,33.12 95.65,44.78 76.77,18.46 170.83,41.09 214.81,135.15 50.4,107.79 31.79,189.27 18.51,247.43 -4.69,20.52 -8.63,37.81 -7.94,50.41 1.81,32.77 46.44,43.32 241.75,32.53 129.46,-7.16 142.19,92.97 156.2,203.41 8.33,65.66 17.19,135.43 54.44,181.59 28.63,35.48 85.57,-0.09 142.78,-35.83 42.93,-26.81 85.99,-53.72 125.13,-56.62 55.09,-4.07 96.61,34.68 106.74,171.58 10.16,137.36 55.87,169.57 114.54,165.24 33.88,-2.5 73.4,-16.06 113.25,-29.72 108.17,-37.1 218.62,-74.98 271.33,68.16 54,146.62 77.48,174.31 122.09,157.88 16.25,-5.98 35.91,-16.77 59.85,-29.89 52.9,-29 125.88,-69.03 235.6,-98.73 77.42,-20.95 130.83,43.46 181.55,104.65 28.55,34.43 56.16,67.73 83.64,79.05 45.68,18.8 100.98,-24.63 186.87,-233.3 0.57,-1.41 1.25,-2.75 2.02,-4.02 11.78,-19.59 43.69,-20.39 83.83,-10.84 33.49,7.97 74.92,22.89 113.66,38.83 47.81,19.69 91.75,41.11 111.43,52.94 52.63,31.64 79.43,25.02 94.43,0.06 15.68,-26.08 22.95,-70.49 30.43,-116.18 11.52,-70.35 23.51,-143.5 69.58,-175.88 23.98,-16.85 66.15,1.39 118.71,24.13 46.28,20.03 101.72,44.01 152.46,48.88 75.17,7.21 143.08,-30.55 159.25,-199.15 12.21,-127.3 63.95,-151.44 136.15,-144.52 25.27,2.42 52.46,9.01 81.35,16.01 26.34,6.38 54.19,13.13 82.55,17.07 72.83,10.13 97.86,-33.08 106.14,-92.63 5.06,-36.39 4.46,-78.76 3.87,-119.89 -1.34,-93.51 -2.59,-181.31 60.98,-200.7 83.3,-25.41 158.03,-22.91 214.87,-21.01 37.36,1.25 66.29,2.22 80.33,-5.13 26.03,-13.63 6.62,-72.92 -92.29,-261.89 -41.98,-80.2 41.91,-123.57 133.23,-170.78 44.82,-23.17 91.67,-47.38 122.49,-76.36 43.28,-40.68 54.07,-94.43 -24.63,-178.14 -111.51,-118.62 -100.09,-171.63 -51.23,-217.56 12.65,-11.89 27.46,-22.61 43.18,-33.98z"/>
   <path class="fil1" d="M6471.52 4158.13c-9.3,87.25 -63.59,132.61 -109.71,171.14 -14.23,11.89 -27.63,23.09 -37.5,33.75 -31.18,33.7 -33.43,73.22 64.31,163.67 104.6,96.78 92.91,167.43 38.92,225.79 -32.18,34.78 -79.31,63.47 -124.41,90.92 -72.04,43.85 -138.22,84.14 -109.36,131.02 126.17,204.91 146.02,274.22 98.78,303.3 -21.43,13.2 -54.39,14.4 -96.97,15.93 -54.27,1.97 -125.62,4.56 -201.62,33.67 -37.23,14.26 -30.94,89 -24.24,168.61 3.56,42.31 7.22,85.89 4.54,125.13 -5.48,79.92 -35.67,139.59 -137.02,132.63 -30.15,-2.06 -59.36,-7.03 -87.01,-11.71 -28.19,-4.78 -54.71,-9.28 -77.28,-9.87 -51.56,-1.34 -87.12,20.2 -89.69,119.26 -5.12,197.33 -86.56,246.59 -181.07,244.14 -56.65,-1.47 -116.44,-22.54 -166.36,-40.12 -43.67,-15.39 -78.71,-27.72 -86.14,-21.69 -32.24,26.19 -38.4,92.43 -44.31,156.13 -4.61,49.6 -9.09,97.81 -25.91,130.8 -22.85,44.81 -63.15,62.04 -141.67,22.01 -19.44,-9.91 -62.82,-27.42 -109.97,-43.09 -37.98,-12.62 -78.39,-24.07 -110.69,-29.41 -25.63,-4.24 -43.87,-5.8 -45.69,-2.22 -79.81,239.81 -148,289.44 -214.46,267.35 -36.72,-12.2 -69.51,-46.58 -103.43,-82.14 -47.23,-49.5 -96.95,-101.62 -151.35,-82.74 -103.19,35.81 -171.23,79.55 -220.54,111.24 -24.13,15.51 -43.94,28.25 -62.31,36.5 -68.81,30.94 -103.41,2.17 -179.4,-166.81 -48.37,-107.58 -139.87,-68.89 -229.48,-30.99 -40.94,17.31 -81.53,34.48 -119.67,39.99 -78.32,11.32 -141.96,-22.69 -165.69,-186.87 -15.75,-108.99 -44.37,-138.65 -78.51,-133.72 -30.11,4.35 -67.69,31.64 -105.14,58.84 -67.24,48.82 -134.16,97.42 -186.5,41.08 -47.17,-50.77 -61.87,-124.84 -75.71,-194.56 -18.31,-92.23 -34.91,-175.85 -131.03,-163.79 -222.65,27.95 -275.57,11.38 -282.81,-46.34 -2.15,-17.18 0.94,-37.05 4.62,-60.59 8.43,-53.98 20.23,-129.6 -31.65,-223 -42.18,-75.93 -128.34,-90.4 -198.67,-102.2 -60.3,-10.12 -110.57,-18.56 -125.96,-60.77 -19.24,-52.75 22.88,-120.24 63.97,-186.09 21.69,-34.77 43.09,-69.06 53.35,-97.91 10.77,-30.26 7.83,-54.79 -26.16,-66.88 -28.9,-10.28 -134.91,-73.41 -202.29,-131.8 -19.79,-17.15 -36.52,-34.05 -47.5,-49.39 -13.56,-18.93 -19.31,-36.93 -13.68,-52.74l0 -0.07c1.48,-4.15 3.76,-8.06 6.9,-11.68 40.56,-46.81 75.33,-85.31 103.41,-116.39 60.37,-66.83 87.54,-96.91 87.04,-112.89 -0.29,-9.43 -17.78,-20.63 -49.56,-40.99 -36,-23.06 -87.62,-56.13 -152.13,-114.23 -103.24,-92.99 19.45,-233.8 107.48,-334.81 37.89,-43.48 68.43,-78.54 66.59,-88.19 -9.14,-47.89 -46.19,-81.21 -83.04,-114.34 -52.96,-47.63 -105.57,-94.95 -93.71,-185.33 3.15,-23.93 47.68,-50.05 101.93,-81.85 16.9,-9.91 34.84,-20.43 52.69,-31.44 73.9,-45.63 145.8,-98.89 118.84,-142.55 -125.49,-203.28 -147.8,-270.51 -100.85,-299.5 20.41,-12.6 51.83,-14.19 93.11,-16.28 54.18,-2.74 126.94,-6.43 207.24,-37.22 37.13,-14.24 30.81,-89.04 24.07,-168.7 -3.61,-42.65 -7.32,-86.57 -4.54,-126.03 5.61,-79.65 35.93,-138.97 137,-131.85 29.19,2.05 57.78,6.66 84.84,11.01 28.06,4.52 54.43,8.77 77.18,9.36 52.93,1.38 89.33,-19.67 91.91,-117.95 5.16,-197.21 86.57,-246.46 181.06,-243.98 56.75,1.49 116.66,22.65 166.62,40.29 43.61,15.41 78.59,27.76 85.95,21.8 32.17,-26.07 38.37,-92.25 44.32,-155.93 4.63,-49.61 9.15,-97.85 26.11,-131.04 22.89,-44.79 63.22,-61.98 141.75,-21.84 19.13,9.78 62.98,27.41 111.13,43.35 38.06,12.61 78.25,23.95 110,29.15 24.54,4.01 42.22,5.55 45.04,2.45 79.62,-240.3 147.85,-290.07 214.42,-268.03 36.64,12.14 69.56,46.59 103.59,82.22 47.28,49.48 97.04,101.56 151.36,82.53 104.19,-36.5 172.51,-80.27 221.8,-111.85 24.06,-15.41 43.77,-28.04 61.96,-36.22 68.87,-30.97 102.42,-1.8 178.39,167.17 49.67,110.46 141.62,70.49 231.23,31.52 41.15,-17.89 81.88,-35.6 120.19,-41.14 77.17,-11.15 139.69,23.41 163.41,187.54 15.26,105.63 42.94,133.35 76.44,128.51 26.78,-3.87 59.84,-25.26 93.65,-47.13 28.06,-18.15 56.61,-36.62 85.04,-47.59 59.19,-22.84 113.86,-14.86 151.87,83.67 9.26,24.02 20.29,40.85 30.41,56.28 17.77,27.13 33.07,50.46 35.93,99.17l1 18.91c0.82,16.06 1.58,30.9 3.31,44.65 5.26,41.97 22.35,65.4 99.21,55.76 222.64,-27.94 275.55,-11.36 282.8,46.35 2.15,17.19 -0.94,37.05 -4.62,60.6 -8.43,53.98 -20.24,129.61 31.64,223 42.17,75.92 128.33,90.4 198.66,102.21 60.3,10.13 110.56,18.59 125.94,60.78 19.22,52.75 -22.89,120.24 -63.98,186.09 -21.7,34.78 -43.1,69.06 -53.36,97.92 -10.77,30.26 -7.84,54.8 26.15,66.89 28.91,10.29 134.86,73.4 202.23,131.77 19.79,17.15 36.54,34.06 47.52,49.41 13.56,18.94 19.3,36.93 13.69,52.74 -1.51,4.23 -3.8,8.16 -6.9,11.75 -40.59,46.84 -75.4,85.37 -103.48,116.46 -60.33,66.78 -87.48,96.84 -86.99,112.81 0.29,9.43 17.78,20.64 49.56,41.01 35.99,23.06 87.61,56.13 152.1,114.23 44.76,40.31 30.72,85.15 16.58,130.25 -3.4,10.83 -6.81,21.7 -9.06,31.97zm-132.37 144.06c41.29,-34.5 89.96,-75.15 97.41,-148.73l18.07 1.78 -17.8 -3.78c2.62,-12.19 6.33,-24.02 10.02,-35.81 10.74,-34.28 21.42,-68.36 -6.49,-93.5 -62.46,-56.26 -112.59,-88.39 -147.55,-110.78 -41.83,-26.81 -64.85,-41.56 -65.72,-69.74 -0.93,-29.98 29.19,-63.33 96.11,-137.41 27.19,-30.11 60.9,-67.41 102.93,-115.91l0.26 -0.42c1.28,-3.59 -2.28,-10.85 -9.13,-20.42 -9.42,-13.15 -24.2,-28.02 -41.85,-43.32 -64.44,-55.84 -164.11,-115.61 -190.9,-125.14 -59.56,-21.19 -65.46,-62.01 -47.7,-111.93 11.59,-32.57 33.98,-68.45 56.68,-104.83 36.61,-58.68 74.14,-118.82 60.81,-155.42 -8.31,-22.81 -49.35,-29.71 -98.58,-37.98 -77.85,-13.07 -173.24,-29.11 -223.67,-119.91 -57.75,-103.98 -44.85,-186.57 -35.65,-245.52 3.23,-20.69 5.95,-38.13 4.35,-50.93 -4.08,-32.5 -49.33,-39.9 -243.42,-15.54 -106.45,13.35 -130.56,-22.6 -138.59,-86.57 -1.74,-13.88 -2.56,-29.85 -3.44,-47.14l-1 -18.63c-2.3,-39.23 -15.24,-58.96 -30.27,-81.9 -11,-16.78 -22.99,-35.07 -33.72,-62.91 -27.92,-72.38 -65.8,-79.12 -106.28,-63.5 -25.04,9.66 -52.03,27.12 -78.55,44.28 -37.17,24.05 -73.51,47.56 -107.88,52.52 -54.11,7.82 -97.2,-25.8 -116.37,-158.49 -19.7,-136.34 -66.46,-165.8 -123.48,-157.56 -33.69,4.87 -72.18,21.61 -111.07,38.52 -105.38,45.83 -213.51,92.84 -277.51,-49.49 -64.07,-142.5 -88.68,-168.76 -131.84,-149.35 -15.44,6.94 -34.27,19 -57.26,33.74 -50.71,32.49 -120.98,77.51 -229.26,115.44 -75.75,26.54 -133.57,-33.99 -188.53,-91.51 -30.87,-32.31 -60.73,-63.57 -89.09,-72.96 -46.9,-15.53 -98.99,31.7 -169.91,245.88l-0.07 0c-0.54,1.61 -1.11,3 -1.7,4.18l-0.07 0.07c-10.33,20.22 -41.87,23.3 -82.32,16.69 -34.11,-5.58 -76.1,-17.38 -115.39,-30.39 -49.31,-16.33 -95.3,-34.93 -116.09,-45.56 -54.74,-27.98 -81.08,-19.5 -94.37,6.5 -13.87,27.14 -18.07,72.04 -22.38,118.19 -6.64,70.99 -13.54,144.76 -57.17,180.11 -22.78,18.46 -66.02,3.19 -119.93,-15.85 -47.68,-16.84 -104.83,-37.03 -155.71,-38.36 -75.48,-1.97 -140.58,40.4 -145.01,209.58 -3.33,127.14 -54.07,154.29 -127.96,152.35 -25.32,-0.66 -52.73,-5.08 -81.88,-9.77 -26.07,-4.19 -53.6,-8.63 -81.66,-10.6 -73.15,-5.15 -95.22,39.32 -99.42,98.98 -2.57,36.59 1.04,79.3 4.54,120.78 7.89,93.26 15.29,180.83 -46.74,204.63 -85.27,32.7 -161.44,36.56 -218.15,39.43 -36.11,1.83 -63.6,3.22 -76.26,11.04 -23.81,14.7 1.19,70.99 112.32,251 43.09,69.8 -41.62,136.29 -130.31,191.04 -18,11.11 -36.22,21.8 -53.38,31.86 -46.07,27.02 -83.9,49.2 -84.8,56.02 -9.45,71.94 36.32,113.1 82.37,154.52 41.24,37.09 82.71,74.38 94.09,133.96 5.08,26.59 -30.49,67.41 -74.6,118.03 -78.5,90.07 -187.9,215.63 -110.52,285.34 62.47,56.26 112.61,88.39 147.57,110.78 41.83,26.8 64.85,41.54 65.72,69.72 0.94,30 -29.2,63.36 -96.16,137.48 -27.19,30.09 -60.86,67.38 -102.85,115.84l-0.26 0.48c-1.24,3.61 2.32,10.84 9.13,20.34 9.41,13.15 24.19,28.01 41.84,43.31 64.45,55.85 164.17,115.63 190.95,125.16 59.56,21.19 65.47,62.01 47.71,111.92 -11.59,32.57 -33.97,68.43 -56.67,104.81 -36.61,58.68 -74.14,118.83 -60.8,155.42 8.32,22.82 49.37,29.71 98.6,37.98 77.85,13.07 173.24,29.08 223.68,119.89 57.75,103.97 44.86,186.57 35.67,245.52 -3.23,20.68 -5.95,38.13 -4.35,50.92 4.08,32.5 49.33,39.9 243.44,15.53 128.65,-16.15 148.31,82.88 169.99,192.11 12.89,64.93 26.59,133.93 66.87,177.29 31.06,33.43 85.38,-6.02 139.94,-45.64 40.95,-29.75 82.05,-59.59 120.89,-65.2 54.68,-7.9 98.81,27.86 118.44,163.71 19.7,136.33 67.54,165.3 125.75,156.89 33.86,-4.89 72.25,-21.13 110.97,-37.5 105.3,-44.53 212.81,-90 275.35,49.1 64.08,142.51 89.44,168.5 132.84,148.98 15.59,-7.01 34.54,-19.19 57.61,-34.02 50.67,-32.57 120.58,-77.51 228.13,-114.83 75.8,-26.3 133.54,34.23 188.39,91.72 30.87,32.36 60.72,63.66 88.93,73.02 46.9,15.59 99.05,-31.58 170.21,-245.73 0.53,-1.59 1.1,-2.99 1.69,-4.15l0 -0.07c10.36,-20.3 42.13,-23.31 82.85,-16.57 34.06,5.64 76.39,17.61 116.07,30.8 49.35,16.4 94.67,34.69 114.94,45.02 54.66,27.87 80.92,19.4 94.15,-6.54 13.88,-27.24 18.04,-71.95 22.31,-117.95 6.59,-70.98 13.46,-144.8 57.17,-180.3 22.81,-18.52 66.12,-3.27 120.12,15.75 47.62,16.77 104.66,36.86 155.44,38.19 75.5,1.96 140.62,-40.43 145.02,-209.74 3.31,-127.85 53.25,-155.54 125.74,-153.66 25.58,0.66 53.06,5.32 82.25,10.28 26.81,4.55 55.15,9.35 83.56,11.3 73.36,5.04 95.33,-39.79 99.44,-99.76 2.5,-36.35 -1.07,-78.73 -4.54,-119.88 -7.85,-93.22 -15.21,-180.75 46.9,-204.54 81.17,-31.09 156.02,-33.81 212.95,-35.87 37.33,-1.35 66.24,-2.4 79.7,-10.69 25.04,-15.42 1.56,-73.21 -110.25,-254.81 -47.49,-77.12 33.17,-126.21 120.96,-179.65 43.19,-26.28 88.31,-53.75 116.95,-84.7 40.35,-43.61 47.38,-97.99 -36.98,-176.06 -119.47,-110.55 -111.78,-164.19 -66.24,-213.4 12,-12.97 25.91,-24.59 40.69,-36.93zm-2709.18 -2266.44l0.06 -0.09 -0.06 0.09z"/>
   <path class="fil1" d="M1864.57 4351.88c13.82,72.72 65.79,108.99 109.9,139.76 16.11,11.24 31.28,21.82 43.81,33.2 49.64,45.09 61.94,97.9 -47.54,218.41 -77.25,85.04 -65.52,138.59 -21.56,178.52 31.35,28.48 78.57,51.88 123.75,74.26 92.11,45.64 176.73,87.57 136.13,168.46 -95.67,190.65 -114.07,250.26 -87.81,263.44 14.14,7.09 43.08,5.63 80.45,3.74 56.85,-2.87 131.59,-6.65 215.19,17.3 63.87,18.3 64.12,106.19 64.38,199.78 0.11,41.17 0.23,83.58 5.89,119.73 9.3,59.42 35.07,102.19 107.75,90.82 28.03,-4.39 55.89,-11.65 82.24,-18.5 28.87,-7.52 56.04,-14.6 81.09,-17.43 72.07,-8.16 124.22,15.12 138.61,142.22 19.04,168.25 87.58,204.83 162.61,196.35 50.57,-5.72 105.63,-30.67 151.59,-51.49 52.11,-23.62 93.93,-42.56 118.26,-26.07 46.63,31.59 59.86,104.52 72.57,174.65 8.25,45.48 16.27,89.68 32.46,115.61 15.42,24.69 42.32,30.85 94.38,-1.67 19.54,-12.2 63.17,-34.41 110.61,-54.89 38.06,-16.43 79.1,-31.96 112.94,-40.63 40,-10.24 71.91,-10 83.98,9.32 0.74,1.19 1.43,2.51 2.05,3.94l0.07 0.07c89.44,207.13 145.44,249.59 190.78,230.02 27.48,-11.86 54.44,-45.54 82.33,-80.37 49.68,-62.06 101.98,-127.38 179.69,-107.76 110.17,27.81 183.84,66.59 237.23,94.69 24.23,12.76 44.14,23.24 60.37,28.9 44.9,15.67 67.9,-12.42 119.4,-159.98 50.24,-143.96 161.28,-107.98 270.04,-72.75 40.05,12.98 79.78,25.85 113.82,27.79 58.73,3.34 103.88,-29.66 111.7,-167.21 7.79,-137.03 48.65,-176.47 103.8,-173.33 39.13,2.22 82.66,28.39 126.04,54.48 57.81,34.76 115.37,69.36 143.43,33.34 36.37,-46.68 44.04,-116.61 51.25,-182.42 12.13,-110.67 23.14,-211.01 152.7,-206.07 195.52,7.46 239.96,-3.84 241.22,-36.62 0.48,-12.59 -3.78,-29.85 -8.81,-50.32 -14.27,-57.93 -34.27,-139.09 14.27,-247.69 42.38,-94.81 136.01,-119.04 212.43,-138.8 48.32,-12.5 88.62,-22.92 94.94,-46.42 10.15,-37.68 -32.43,-94.32 -73.97,-149.57 -25.77,-34.28 -51.19,-68.09 -65.52,-99.45 -22.03,-48.2 -19.71,-89.38 37.75,-115.63 25.85,-11.81 120.02,-80.03 179.43,-141.3 16.31,-16.81 29.74,-32.89 37.93,-46.72 6,-10.14 8.93,-17.67 7.36,-21.12l-0.37 -0.43c-44.76,-43.41 -82.26,-78.3 -112.53,-106.46 -73.11,-68.03 -106.02,-98.65 -107.7,-128.73 -1.56,-28.04 20.1,-44.73 59.46,-75.06 32.88,-25.33 80.04,-61.67 137.39,-123.14 71.11,-76.2 -48.76,-191.79 -134.75,-274.73 -48.35,-46.63 -87.33,-84.24 -84.59,-111.12 6.17,-60.35 44.23,-101.07 82.1,-141.59 42.31,-45.27 84.35,-90.25 68.7,-161.1 -1.48,-6.69 -41.08,-25.51 -89.31,-48.43 -17.84,-8.48 -36.79,-17.48 -55.94,-27.12 -93.13,-46.87 -183.31,-105.78 -146.42,-179.1 95.09,-188.93 115.13,-247.17 90.14,-259.75 -13.33,-6.71 -40.83,-5.71 -76.98,-4.41 -56.73,2.05 -132.92,4.8 -220.68,-20.38 -63.78,-18.31 -64,-106.24 -64.22,-199.89 -0.09,-41.48 -0.2,-84.21 -5.96,-120.58 -9.36,-59.11 -35.19,-101.54 -107.58,-90.08 -27.22,4.31 -54.57,11.19 -80.48,17.7 -28.65,7.21 -55.59,13.98 -80.77,16.83 -73.46,8.33 -126.37,-14.32 -140.7,-140.73 -19.07,-168.13 -87.58,-204.7 -162.59,-196.2 -50.66,5.74 -105.83,30.8 -151.83,51.69 -52.06,23.65 -93.81,42.6 -118.05,26.23 -46.54,-31.44 -59.81,-104.36 -72.58,-174.54 -8.3,-45.63 -16.37,-90 -32.54,-115.82l-0.07 0c-15.48,-24.73 -42.43,-30.89 -94.52,1.71l0 0.07c-19.64,12.29 -63.8,34.76 -111.7,55.38 -38.17,16.43 -79.02,31.85 -112.31,40.31 -39.74,10.1 -71.44,9.76 -83.52,-9.55 -0.72,-1.19 -1.42,-2.55 -2.06,-4.04l-0.07 0c-89.22,-207.25 -145.21,-249.8 -190.57,-230.27 -27.45,11.82 -54.51,45.57 -82.49,80.46 -49.76,62.06 -102.12,127.37 -179.86,107.5 -110.82,-28.32 -184.89,-67.17 -238.33,-95.2 -24.07,-12.63 -43.78,-22.96 -60.07,-28.65 -44.64,-15.58 -66.88,12.72 -118.38,160.27 -51.41,147.28 -163.19,109.81 -272.14,73.3 -40.23,-13.48 -80.04,-26.83 -114.02,-28.76 -57.52,-3.26 -101.56,30.14 -109.37,167.69 -7.61,133.84 -47.62,171.07 -102.2,167.96 -34.74,-1.97 -72.91,-22.21 -111.96,-42.91 -27.99,-14.84 -56.48,-29.94 -82.15,-37.37 -41.67,-12.04 -78.83,-2.05 -100.37,72.47 -8.27,28.61 -18.65,47.9 -28.16,65.6 -12.99,24.16 -24.17,44.94 -23.07,84.22l0.63 18.65c0.61,17.02 1.18,32.74 0.62,47.27 -2.45,64.37 -23.36,102.26 -130.52,98.18 -195.51,-7.45 -239.96,3.86 -241.2,36.63 -0.48,12.59 3.78,29.86 8.82,50.33 14.28,57.92 34.27,139.09 -14.26,247.69 -42.37,94.81 -136.01,119.05 -212.43,138.82 -48.31,12.5 -88.59,22.93 -94.91,46.41 -10.13,37.68 32.44,94.32 73.99,149.58 25.78,34.29 51.19,68.1 65.52,99.47 22.02,48.2 19.7,89.37 -37.74,115.61 -25.84,11.81 -119.95,79.99 -179.36,141.26 -16.32,16.82 -29.77,32.91 -37.96,46.76 -6.01,10.15 -8.94,17.69 -7.37,21.14l0.37 0.43c44.8,43.45 82.33,78.36 112.61,106.53 73.07,67.98 105.96,98.59 107.64,128.66 1.56,28.03 -20.09,44.73 -59.46,75.07 -32.87,25.34 -80.02,61.68 -137.37,123.13 -25.67,27.52 -12.09,60.54 1.59,93.75 4.73,11.49 9.47,23.01 13.09,34.77l-17.36 5.33 17.84 -3.34zm89.72 168.64c-49.36,-34.44 -107.48,-75 -124.22,-161.23 -3.17,-10.07 -7.43,-20.43 -11.69,-30.77 -18,-43.72 -35.88,-87.19 5.18,-131.19 59.23,-63.46 107.8,-100.89 141.66,-127 29.88,-23.02 46.32,-35.7 45.79,-45.23 -0.88,-15.84 -30.54,-43.44 -96.45,-104.76 -30.09,-27.99 -67.39,-62.7 -113.16,-107.09 -3.35,-3.25 -5.94,-6.96 -7.82,-11.06 -6.99,-15.29 -2.82,-33.73 9.03,-53.74 9.67,-16.32 24.88,-34.64 43.07,-53.39 62.02,-63.95 162.08,-135.96 190,-148.71 32.87,-15.02 33.68,-39.7 20.33,-68.92 -12.76,-27.93 -37.04,-60.23 -61.66,-92.98 -46.66,-62.07 -94.48,-125.69 -79.93,-179.83 11.65,-43.33 61,-56.1 120.19,-71.42 69.04,-17.86 153.64,-39.76 189.08,-119.06 43.57,-97.51 25.26,-171.84 12.18,-224.9 -5.67,-23 -10.45,-42.41 -9.78,-60 2.21,-58.09 53.49,-79.17 277.68,-70.62 77.43,2.95 92.44,-21.9 94.05,-64.19 0.51,-13.31 -0.04,-28.43 -0.62,-44.78l-0.63 -18.92c-1.37,-48.78 11.85,-73.35 27.2,-101.91 8.72,-16.22 18.24,-33.92 25.4,-58.69 29.33,-101.45 83.09,-114.13 144.03,-96.52 29.39,8.49 59.35,24.38 88.78,39.99 35.65,18.9 70.5,37.38 97.45,38.91 33.81,1.92 58.99,-28.1 65.04,-134.67 9.41,-165.56 68.7,-205.4 146.54,-200.98 38.67,2.2 80.75,16.31 123.28,30.56 92.66,31.06 187.73,62.92 227.65,-51.47 61.05,-174.89 91.94,-206.85 163.28,-181.96 18.54,6.47 39.36,17.39 64.77,30.72 51.74,27.13 123.43,64.74 230.73,92.17 55.79,14.26 100.85,-41.94 143.66,-95.34 30.8,-38.42 60.59,-75.57 96.03,-90.83 64.41,-27.73 136.69,15.93 236.81,248.33 2.72,2.99 20.3,-0.08 44.67,-6.28 31.37,-7.97 70.39,-22.73 107.06,-38.51 46.41,-19.98 88.63,-41.39 107,-52.89l0.03 0.05c74.75,-46.78 116.43,-33.15 143.12,9.5l-0.05 0.03c19.76,31.6 28.44,79.24 37.35,128.22 11.45,62.91 23.35,128.28 57.66,151.46 7.9,5.33 41.67,-9.99 83.78,-29.12 48.28,-21.92 106.15,-48.21 162.48,-54.59 93.93,-10.65 179.32,31.37 201.55,227.43 11.07,97.65 49.14,115.47 101.74,109.5 22.6,-2.56 48.51,-9.08 76.07,-16.01 26.28,-6.61 54.04,-13.59 83.52,-18.26 100.09,-15.85 135.45,40.56 147.93,119.37 6.16,38.92 6.27,83.16 6.37,126.11 0.19,79.89 0.37,154.91 38.67,165.91 82.69,23.73 155.53,21.09 209.76,19.14 41.3,-1.5 72.74,-2.63 94.12,8.14 49.3,24.8 32.89,93.72 -74.53,307.13 -23.06,45.82 53.21,92.66 130.81,131.71 18.43,9.27 37.31,18.25 55.11,26.7 56.8,26.99 103.44,49.15 108.66,72.75 19.66,89.02 -28.65,140.72 -77.27,192.73 -33.85,36.22 -67.88,72.63 -72.84,121.14 -1,9.82 32.45,42.09 73.95,82.1 96.45,93.02 230.88,222.66 136.13,324.19 -59.24,63.48 -107.81,100.91 -141.68,127.01 -29.88,23.02 -46.31,35.69 -45.79,45.22 0.88,15.85 30.56,43.47 96.51,104.83 30.08,27.99 67.34,62.66 113.08,107.02 3.35,3.26 5.94,6.96 7.82,11.07 6.99,15.29 2.82,33.72 -9.02,53.72 -9.66,16.31 -24.86,34.6 -43.04,53.36 -62.02,63.95 -162.15,136 -190.07,148.76 -32.88,15.02 -33.69,39.71 -20.34,68.93 12.76,27.93 37.04,60.22 61.65,92.96 46.67,62.07 94.48,125.69 79.91,179.83 -11.67,43.35 -61.03,56.11 -120.22,71.42 -69.04,17.86 -153.64,39.74 -189.08,119.04 -43.58,97.51 -25.27,171.84 -12.2,224.89 5.67,23.01 10.45,42.41 9.78,60 -2.22,58.08 -53.49,79.16 -277.69,70.61 -96.82,-3.7 -106.12,81.07 -116.37,174.57 -7.74,70.64 -15.97,145.71 -58.57,200.38 -47.24,60.63 -118.11,18.03 -189.3,-24.78 -39.66,-23.85 -79.46,-47.78 -109.88,-49.5 -34.45,-1.96 -60.39,30.08 -66.64,140.04 -9.41,165.61 -69.86,205 -148.86,200.5 -38.59,-2.19 -80.45,-15.76 -122.67,-29.44 -92.57,-29.99 -187.09,-60.61 -225.96,50.78 -61.05,174.9 -93.03,206.55 -164.3,181.67 -18.91,-6.6 -39.79,-17.59 -65.21,-30.96 -51.78,-27.26 -123.22,-64.87 -229.35,-91.66 -55.9,-14.11 -100.9,42.08 -143.63,95.47 -30.78,38.45 -60.55,75.63 -95.87,90.87 -64.35,27.78 -136.65,-15.8 -237.01,-248.07 -2.79,-3.04 -20.55,0.08 -45.12,6.37 -31.28,8.01 -70.63,22.97 -107.69,38.98 -45.96,19.84 -87.63,40.99 -105.92,52.41 -74.72,46.67 -116.35,33 -143.01,-9.67 -19.62,-31.42 -28.26,-79.04 -37.15,-128.04 -11.41,-62.95 -23.3,-128.43 -57.66,-151.72 -7.91,-5.36 -41.78,9.98 -83.99,29.11 -48.23,21.85 -106.01,48.04 -162.23,54.39 -93.96,10.63 -179.37,-31.4 -201.57,-227.57 -11.14,-98.42 -48.42,-116.8 -99.65,-111 -22.84,2.58 -48.67,9.31 -76.11,16.46 -27.09,7.05 -55.72,14.51 -85.69,19.2 -100.35,15.7 -135.58,-41.12 -147.96,-120.25 -6.06,-38.71 -6.18,-82.55 -6.3,-125.12 -0.22,-79.83 -0.43,-154.8 -38.82,-165.8 -78.21,-22.41 -149.57,-18.8 -203.85,-16.06 -42.48,2.15 -75.37,3.81 -97.86,-7.48 -49.61,-24.9 -35.85,-95.65 72.07,-310.69 24.72,-49.24 -44.68,-83.64 -120.23,-121.07 -47.41,-23.49 -96.97,-48.05 -131.91,-79.79 -58.86,-53.46 -76.65,-122.87 19.22,-228.4 89.5,-98.52 83.84,-137.69 49.88,-168.54 -11.3,-10.26 -25.32,-20.05 -40.22,-30.44z"/>
  </g>
 </g>
</svg>
